<svg id="Layer_1" data-name="Layer 1" xmlns="http://www.w3.org/2000/svg" viewBox="0 0 73.39 106"><defs><style>.cls-1{fill:none;stroke:#381d2e;stroke-miterlimit:10;stroke-width:5px;}.cls-2{fill:#965679;}.cls-3{fill:#381d2e;}.cls-4{opacity:0.33;}.cls-5{fill:#fff;}</style></defs><title>meetme_icon</title><line class="cls-1" x1="35.7" y1="106" x2="35.7" y2="59"/><line class="cls-1" x1="36.7" y1="106" x2="36.7" y2="59"/><path class="cls-2" d="M330.68,276.3a33.65,33.65,0,1,1,33.65-33.65A33.69,33.69,0,0,1,330.68,276.3Z" transform="translate(-294.3 -208)"/><path class="cls-3" d="M330.68,210A32.65,32.65,0,1,1,298,242.65,32.69,32.69,0,0,1,330.68,210m0-2a34.65,34.65,0,1,0,34.65,34.65A34.65,34.65,0,0,0,330.68,208Z" transform="translate(-294.3 -208)"/><line class="cls-1" x1="71.2" y1="24.5" x2="35.2" y2="89.5"/><g class="cls-4"><circle class="cls-5" cx="36.12" cy="34.69" r="12.58"/></g><line class="cls-1" x1="2.2" y1="24.5" x2="36.2" y2="87.5"/></svg>